# xmcd CD database file
#
# Track frame offsets:
#	150
#	20687
#	38352
#	53797
#	71325
#	89275
#	109412
#	127365
#	149572
#	167455
#	187412
#	209242
#	230407
#	250515
#	269002
#	290235
#
# Disc length: 4149 seconds
#
# Revision: 2
# Processed by: cddbd v1.5PL3 Copyright (c) Steve Scherf et al.
# Submitted via: CDex 1.51
#
DISCID=02103310
DTITLE=薬師丸　ひろ子 - Love Collection 1981-2000-The Best Of Hiroko Yakushimaru
DYEAR=2000
DGENRE=Pop
TTITLE0=セーラー服と機関銃
TTITLE1=探偵物語
TTITLE2=メインテーマ
TTITLE3=Woman「Wの悲劇」より
TTITLE4=元気を出して
TTITLE5=ステキな恋の忘れ方
TTITLE6=紳士同盟
TTITLE7=Distance
TTITLE8=A Lover's Concerto
TTITLE9=交差点
TTITLE10=恋文
TTITLE11=再会橋
TTITLE12=Smile スマイル Smile
TTITLE13=金色の麦畑
TTITLE14=Love Holic (Another Mix Version)
TTITLE15=風に乗って (New Version)
EXTD=YEAR: 2000
EXTT0=
EXTT1=
EXTT2=
EXTT3=
EXTT4=
EXTT5=
EXTT6=
EXTT7=
EXTT8=
EXTT9=
EXTT10=
EXTT11=
EXTT12=
EXTT13=
EXTT14=
EXTT15=
PLAYORDER=
